<svg xmlns="http://www.w3.org/2000/svg" viewBox="0 0 1600 900" role="img" aria-labelledby="title desc">
  <title>SAWC primary horizontal logo outlined</title>
  <desc>Outlined vector wordmark with grape cluster icon for Sydney Amateur Winemakers Club.</desc>
  <g id="icon" fill="#6D1F35" fill-rule="evenodd">
    <path d="M360 132C330 138 290 150 250 180C190 220 165 295 170 390C175 545 245 690 360 750C475 690 545 545 550 390C555 295 530 220 470 180C430 150 390 138 360 132Z
M360 206C336 262 321 341 319 430C317 539 336 629 360 699C384 629 403 539 401 430C399 341 384 262 360 206Z"/>
    <path d="M274 150C236 126 214 88 212 56C254 58 298 80 324 118C312 134 294 146 274 150Z"/>
    <path d="M446 150C484 126 506 88 508 56C466 58 422 80 396 118C408 134 426 146 446 150Z"/>
  </g>
  <g id="tendril" fill="none" stroke="#6D1F35" stroke-width="16" stroke-linecap="round" stroke-linejoin="round">
    <path d="M506 98C560 102 598 150 596 204C594 260 548 298 496 288C456 280 430 244 434 208C438 174 470 158 498 166C518 172 532 190 530 208"/>
  </g>
  <g id="wordmark" fill="#000000" transform="translate(-30 0) scale(0.82 1)">
    <path d="M700 280L700 225L745 225L745 280L775 280L775 205L745 205L745 185L815 185L815 205L785 205L785 280L815 280L815 300L700 300L700 280ZM840 300L840 185L875 185L910 250L945 185L980 185L980 300L950 300L950 232L922 282L898 282L870 232L870 300L840 300ZM1008 300L1008 185L1088 185L1088 205L1038 205L1038 232L1084 232L1084 252L1038 252L1038 280L1092 280L1092 300L1008 300ZM1122 300L1122 185L1158 185L1212 255L1212 185L1240 185L1240 300L1206 300L1150 228L1150 300L1122 300ZM1272 300L1272 205L1238 205L1238 185L1336 185L1336 205L1302 205L1302 300L1272 300ZM1358 300L1358 185L1442 185L1442 205L1388 205L1388 232L1434 232L1434 252L1388 252L1388 300L1358 300"/>
    <path d="M700 430L750 315L786 315L836 430L804 430L794 404L742 404L732 430L700 430ZM752 382L784 382L768 344L752 382ZM852 430L852 315L887 315L922 380L957 315L992 315L992 430L962 430L962 362L934 412L910 412L882 362L882 430L852 430ZM1016 430L1016 315L1114 315L1114 335L1080 335L1080 430L1050 430L1050 335L1016 335L1016 315ZM1144 430L1144 315L1228 315L1228 335L1174 335L1174 362L1220 362L1220 382L1174 382L1174 410L1232 410L1232 430L1144 430ZM1258 430L1258 315L1312 315C1348 315 1372 336 1372 366C1372 390 1358 407 1336 414L1378 430L1342 430L1306 416L1288 416L1288 430L1258 430ZM1288 395L1310 395C1328 395 1340 384 1340 367C1340 350 1328 336 1310 336L1288 336L1288 395ZM1396 430L1396 315L1494 315L1494 335L1460 335L1460 430L1430 430L1430 335L1396 335L1396 315ZM1520 430L1520 315L1604 315L1604 335L1550 335L1550 362L1596 362L1596 382L1550 382L1550 430L1520 430"/>
    <path d="M700 560L672 445L702 445L720 523L744 445L774 445L798 523L816 445L846 445L818 560L784 560L758 486L732 560L700 560ZM866 560L866 445L896 445L896 560L866 560ZM920 560L920 445L956 445L1010 515L1010 445L1038 445L1038 560L1004 560L948 488L948 560L920 560ZM1060 560L1060 445L1144 445L1144 465L1090 465L1090 492L1136 492L1136 512L1090 512L1090 540L1148 540L1148 560L1060 560ZM1170 560L1170 445L1206 445L1240 496L1274 445L1310 445L1310 560L1280 560L1280 494L1248 542L1232 542L1200 494L1200 560L1170 560ZM1334 560L1384 445L1420 445L1470 560L1438 560L1428 534L1376 534L1366 560L1334 560ZM1386 512L1418 512L1402 474L1386 512ZM1486 560L1486 445L1540 445C1576 445 1600 466 1600 496C1600 520 1586 537 1564 544L1606 560L1570 560L1534 546L1516 546L1516 560L1486 560ZM1516 525L1538 525C1556 525 1568 514 1568 497C1568 480 1556 466 1538 466L1516 466L1516 525ZM1632 560L1632 445L1716 445L1716 465L1662 465L1662 492L1708 492L1708 512L1662 512L1662 540L1720 540L1720 560L1632 560ZM1744 556V530C1764 540 1782 546 1800 546C1818 546 1830 538 1830 526C1830 514 1820 509 1798 503C1764 494 1748 481 1748 454C1748 427 1770 443 1802 443C1820 443 1838 447 1856 455V480C1838 470 1820 464 1804 464C1788 464 1778 471 1778 482C1778 492 1786 497 1810 503C1844 512 1860 523 1860 552C1860 581 1836 567 1800 567C1780 567 1762 563 1744 556Z"/>
  </g>
</svg>
